<svg width="108" height="25" viewBox="0 0 108 25" fill="none" xmlns="http://www.w3.org/2000/svg">
<g filter="url(#filter0_d_2_35)">
<path d="M13.1522 13.0722C13.7516 13.3334 14.0513 13.6869 14.0513 14.1326C14.0513 14.4093 13.913 14.6782 13.6363 14.9395C13.3597 15.2008 13.0446 15.3852 12.6911 15.4928C11.8458 15.585 11.2464 15.6388 10.8929 15.6542C8.83342 15.8233 7.38102 15.9846 6.53571 16.1383C6.39739 16.2305 6.10537 16.2766 5.65967 16.2766C5.22933 16.2766 4.8451 16.0768 4.50697 15.6772C4.18422 15.2776 4.02284 14.8627 4.02284 14.4323C4.02284 14.2633 4.0459 14.1019 4.092 13.9482L7.0429 2.28295C7.21196 1.6067 7.38871 1.16099 7.57314 0.945825C7.77294 0.715286 8.12643 0.600017 8.63362 0.600017C9.04858 0.600017 9.40208 0.646125 9.69409 0.73834C10.0015 0.830556 10.1629 0.968879 10.1782 1.15331C10.1782 1.58365 9.18691 5.76408 7.20428 13.6946C8.55677 13.4641 10.2781 13.2796 12.3683 13.1413L13.1522 13.0722ZM23.5113 4.86828C23.9065 5.07686 24.1041 5.34033 24.1041 5.65869C24.1041 5.8563 23.9943 6.04293 23.7747 6.21857C23.5661 6.38324 23.3301 6.49851 23.0666 6.56438L22.3421 6.61378C22.0128 6.63574 21.5681 6.66867 21.0083 6.71259C20.4484 6.74552 19.7897 6.79492 19.0322 6.86079L18.2912 9.80839C18.9828 9.69861 19.5537 9.61079 20.0038 9.54492C20.4649 9.47905 20.9753 9.42416 21.5352 9.38025C21.9634 9.56687 22.1774 9.81937 22.1774 10.1377C22.1774 10.3353 22.0786 10.5275 21.881 10.7141C21.6834 10.9007 21.4584 11.0324 21.2059 11.1093L20.2672 11.2081C19.2682 11.3179 18.4669 11.4276 17.8631 11.5374C17.7313 12.1412 17.5447 12.9042 17.3032 13.8263L17.1714 14.3368C18.6315 14.0624 20.0422 13.8703 21.4035 13.7605C21.8316 13.9471 22.0457 14.1996 22.0457 14.518C22.0457 14.7156 21.9469 14.9077 21.7493 15.0943C21.5517 15.2809 21.3266 15.4127 21.0741 15.4895C18.9883 15.731 17.5173 15.9341 16.661 16.0988C16.5622 16.1647 16.3481 16.1976 16.0188 16.1976C15.7114 16.1976 15.4369 16.0549 15.1954 15.7695C14.9649 15.484 14.8496 15.1876 14.8496 14.8802C14.8496 14.7595 14.8661 14.6442 14.899 14.5344L16.7762 7.10779H16.7268C16.7159 6.98704 16.639 6.83883 16.4963 6.66318C16.4853 6.64123 16.4414 6.57536 16.3646 6.46558C16.2877 6.34482 16.2493 6.22955 16.2493 6.11977C16.2712 5.80141 16.4798 5.54891 16.875 5.36229C17.6984 5.25251 18.8511 5.14822 20.3331 5.04941C21.8152 4.93963 22.8745 4.87925 23.5113 4.86828ZM26.075 5.47756C26.1189 5.29093 26.2396 5.16468 26.4372 5.09881C26.6458 5.03295 26.8983 5.00001 27.1947 5.00001C27.5351 5.00001 27.7656 5.03844 27.8863 5.11528C28.0181 5.18115 28.1114 5.27995 28.1663 5.41169C27.9797 6.01548 27.2167 9.26498 25.8774 15.1602C25.7237 15.764 25.4822 16.0659 25.1528 16.0659C24.1428 16.0659 23.6378 15.8298 23.6378 15.3578C23.6378 15.3139 23.7696 14.7759 24.0331 13.744C24.9442 10.1542 25.6249 7.39871 26.075 5.47756ZM32.8202 15.012C32.7323 15.3962 32.5951 15.6926 32.4085 15.9012C32.2328 16.1098 31.9419 16.2141 31.5357 16.2141C31.1954 16.2141 30.9429 16.1537 30.7782 16.0329C30.6246 15.9232 30.5477 15.731 30.5477 15.4566C30.5477 15.3358 30.5642 15.2206 30.5971 15.1108L32.6061 7.14073C32.5951 7.14073 32.2383 7.17915 31.5357 7.256C30.6904 7.32187 30.1635 7.37676 29.9549 7.42067C29.7353 7.34382 29.5652 7.22855 29.4444 7.07486C29.3346 6.91019 29.2797 6.71807 29.2797 6.49851C29.2797 6.32286 29.3401 6.15819 29.4609 6.0045C29.5926 5.83983 29.7463 5.71907 29.922 5.64223C30.4709 5.53245 31.2393 5.43913 32.2273 5.36229C33.2154 5.28544 34.4833 5.20311 36.0312 5.11528C36.8216 5.08235 37.3541 5.04941 37.6285 5.01648C37.8042 5.09333 37.9524 5.21408 38.0731 5.37875C38.2049 5.53245 38.2707 5.69712 38.2707 5.87277C38.2707 6.07037 38.1719 6.26249 37.9743 6.44911C37.7767 6.63574 37.5517 6.76748 37.2992 6.84432L34.4175 6.99252C34.5382 7.03644 34.5986 7.18464 34.5986 7.43714C34.5986 7.56887 34.5876 7.66767 34.5657 7.73354C34.379 8.56787 34.1211 9.64921 33.7917 10.9776C33.4733 12.3059 33.2593 13.2061 33.1495 13.6781C33.0836 13.9526 33.0233 14.1996 32.9684 14.4192C32.9135 14.6387 32.8641 14.8363 32.8202 15.012ZM38.9568 6.26798C39.0666 5.78494 39.1874 5.46658 39.3191 5.31289C39.4618 5.14822 39.7143 5.06588 40.0766 5.06588C40.4938 5.06588 40.7902 5.12626 40.9658 5.24702C41.1415 5.3568 41.2348 5.53794 41.2458 5.79043C41.2458 5.92217 41.2183 6.10879 41.1634 6.35031L39.7308 12.5749L39.7143 12.8054C39.7253 13.4531 39.9119 13.9306 40.2742 14.238C40.6474 14.5344 41.0756 14.6826 41.5586 14.6826C42.9089 14.6826 43.7707 13.8373 44.144 12.1467C44.1879 11.9381 44.38 11.027 44.7203 9.41318C45.2033 7.07486 45.4668 5.83983 45.5107 5.7081C45.5766 5.48853 45.7028 5.32935 45.8895 5.23055C46.0871 5.12077 46.3066 5.06588 46.5481 5.06588C46.7897 5.06588 47.0092 5.16468 47.2068 5.36229C47.4154 5.54891 47.5197 5.80141 47.5197 6.11977V6.18564L46.3176 12.1961C46.12 13.1622 45.8291 13.9471 45.4448 14.5509C45.0606 15.1437 44.5117 15.5938 43.7981 15.9012C43.0955 16.1976 42.1679 16.3458 41.0152 16.3458C39.8955 16.3458 39.0447 16.022 38.4628 15.3743C37.881 14.7265 37.5791 13.8538 37.5571 12.756C37.5571 12.4376 37.601 12.0754 37.6889 11.6692L38.9568 6.26798ZM57.3965 7.89821C57.3965 8.87526 57.0836 9.66019 56.4578 10.253C55.8431 10.8458 55.0526 11.274 54.0866 11.5374L55.0581 12.8877C55.8925 14.0294 56.4249 14.7759 56.6554 15.1272C56.886 15.4676 57.0012 15.7091 57.0012 15.8518C57.0012 15.9726 56.9079 16.0659 56.7213 16.1317C56.6554 16.1537 56.5457 16.1921 56.392 16.247C56.2492 16.3129 56.1175 16.3568 55.9968 16.3787C55.876 16.4007 55.7388 16.4117 55.5851 16.4117C55.3545 16.4117 55.1789 16.3842 55.0581 16.3293L52.0941 11.8338H51.8471C51.5397 11.8338 51.3146 11.8283 51.1719 11.8174C50.8426 13.0359 50.5681 14.1008 50.3486 15.012C50.2607 15.3962 50.1235 15.6926 49.9369 15.9012C49.7612 16.1098 49.4703 16.2141 49.0641 16.2141C48.7238 16.2141 48.4713 16.1537 48.3066 16.0329C48.1529 15.9232 48.0761 15.731 48.0761 15.4566C48.0761 15.3358 48.0926 15.2206 48.1255 15.1108L50.118 7.42067C49.5472 7.58534 49.1135 7.81039 48.8171 8.09582C48.6964 7.96408 48.5976 7.79392 48.5207 7.58534C48.4548 7.36578 48.4219 7.15171 48.4219 6.94312C48.4219 6.6028 48.7458 6.28993 49.3935 6.0045C50.0412 5.71907 50.8096 5.49402 51.6989 5.32935C52.5881 5.1537 53.3401 5.06588 53.9548 5.06588C54.6574 5.06588 55.2667 5.20859 55.7827 5.49402C56.3096 5.76847 56.7103 6.12526 56.9848 6.56438C57.2592 7.0035 57.3965 7.44811 57.3965 7.89821ZM52.3081 6.97606C51.9898 8.24951 51.7263 9.3528 51.5177 10.2859C51.6495 10.2969 51.8361 10.3024 52.0776 10.3024C52.6045 10.3024 53.1315 10.2256 53.6584 10.0719C54.1854 9.90719 54.6245 9.66568 54.9758 9.34731C55.3381 9.02895 55.5192 8.63374 55.5192 8.16169C55.5192 7.73354 55.3436 7.39322 54.9923 7.14073C54.641 6.87726 54.1689 6.74552 53.5761 6.74552C53.2468 6.74552 52.8241 6.82237 52.3081 6.97606ZM65.1264 12.3443C63.6883 12.5858 62.5411 12.8054 61.6848 13.003C61.4214 13.4202 61.2512 13.7001 61.1744 13.8428C60.9438 14.249 60.7352 14.5893 60.5486 14.8638C60.373 15.1272 60.1808 15.3633 59.9723 15.5719C59.7417 15.8024 59.5496 15.9671 59.3959 16.0659C59.2532 16.1647 59.083 16.2141 58.8854 16.2141C58.5561 16.2141 58.2652 16.1427 58.0127 16C57.7712 15.8463 57.6504 15.6926 57.6504 15.5389C57.6724 15.517 57.7931 15.2754 58.0127 14.8144C58.2322 14.3423 58.6384 13.755 59.2312 13.0524C59.2312 12.9646 59.2038 12.8548 59.1489 12.7231C59.094 12.5913 59.0666 12.5145 59.0666 12.4925C59.0666 12.1742 59.5661 11.7899 60.5651 11.3398C61.125 10.5055 61.7123 9.68214 62.327 8.86977C62.9528 8.05739 63.7158 7.09682 64.616 5.98803C64.8355 5.71358 65.1155 5.48853 65.4558 5.31289C65.7961 5.13724 66.1364 5.04941 66.4767 5.04941C66.828 5.04941 67.0915 5.08235 67.2672 5.14822C67.4428 5.21408 67.5526 5.30191 67.5965 5.41169C67.6514 5.52147 67.6788 5.67516 67.6788 5.87277C67.6349 6.20211 67.6075 6.44911 67.5965 6.61378C67.4318 7.94212 67.3056 9.08384 67.2178 10.0389C67.1409 10.983 67.1025 11.9272 67.1025 12.8713C67.1025 13.7385 67.1409 14.5344 67.2178 15.259C67.1848 15.5225 67.0696 15.764 66.872 15.9835C66.6743 16.1921 66.4438 16.2964 66.1803 16.2964C65.6753 16.2964 65.3405 16.1702 65.1758 15.9177C65.0222 15.6652 64.9453 15.237 64.9453 14.6332C64.9453 14.1941 65.0057 13.4311 65.1264 12.3443ZM62.9857 11.1093C63.1833 11.0654 63.4852 11.016 63.8914 10.9611L65.2088 10.7635C65.3076 9.23753 65.4229 8.13973 65.5546 7.47007C65.1264 7.97506 64.2702 9.18813 62.9857 11.1093ZM72.6791 16.4841C72.0643 16.3458 71.6339 16.1998 71.388 16.0461C71.1421 15.8924 70.9808 15.6926 70.9039 15.4467C70.8424 15.1854 70.7963 14.7551 70.7656 14.1557C70.7348 13.2489 70.658 11.8349 70.535 9.91378C70.5197 9.60639 70.4659 8.61508 70.3737 6.93983C70.2815 5.26458 70.2353 3.6585 70.2353 2.12157C70.2353 1.75271 70.3967 1.44533 70.7195 1.19942C71.0576 0.93814 71.4803 0.807502 71.9874 0.807502C72.4485 0.807502 72.7866 0.93814 73.0018 1.19942C73.217 1.44533 73.3246 1.82956 73.3246 2.35211L73.3476 11.5275V13.8099C74.5772 11.0895 75.9834 8.23853 77.5665 5.2569C79.1495 2.2599 80.1639 0.761395 80.6096 0.761395C81.1783 0.761395 81.6393 0.892033 81.9928 1.15331C82.3463 1.41459 82.5307 1.72197 82.5461 2.07546C82.4539 2.27526 82.0774 2.98225 81.4165 4.19642L80.3329 6.10989L79.5491 7.56228C77.9968 10.4056 76.9133 12.3652 76.2985 13.441C75.6837 14.5169 75.1689 15.2776 74.7539 15.7234C74.5695 15.9385 74.2851 16.1153 73.9009 16.2536C73.5321 16.4073 73.1248 16.4841 72.6791 16.4841ZM89.6212 12.3443C88.1831 12.5858 87.0359 12.8054 86.1796 13.003C85.9161 13.4202 85.7459 13.7001 85.6691 13.8428C85.4385 14.249 85.23 14.5893 85.0433 14.8638C84.8677 15.1272 84.6756 15.3633 84.467 15.5719C84.2365 15.8024 84.0443 15.9671 83.8906 16.0659C83.7479 16.1647 83.5778 16.2141 83.3802 16.2141C83.0508 16.2141 82.7599 16.1427 82.5074 16C82.2659 15.8463 82.1451 15.6926 82.1451 15.5389C82.1671 15.517 82.2879 15.2754 82.5074 14.8144C82.727 14.3423 83.1332 13.755 83.726 13.0524C83.726 12.9646 83.6985 12.8548 83.6436 12.7231C83.5888 12.5913 83.5613 12.5145 83.5613 12.4925C83.5613 12.1742 84.0608 11.7899 85.0598 11.3398C85.6197 10.5055 86.207 9.68214 86.8218 8.86977C87.4475 8.05739 88.2105 7.09682 89.1107 5.98803C89.3303 5.71358 89.6102 5.48853 89.9505 5.31289C90.2908 5.13724 90.6312 5.04941 90.9715 5.04941C91.3228 5.04941 91.5862 5.08235 91.7619 5.14822C91.9375 5.21408 92.0473 5.30191 92.0912 5.41169C92.1461 5.52147 92.1736 5.67516 92.1736 5.87277C92.1297 6.20211 92.1022 6.44911 92.0912 6.61378C91.9266 7.94212 91.8003 9.08384 91.7125 10.0389C91.6356 10.983 91.5972 11.9272 91.5972 12.8713C91.5972 13.7385 91.6356 14.5344 91.7125 15.259C91.6796 15.5225 91.5643 15.764 91.3667 15.9835C91.1691 16.1921 90.9385 16.2964 90.6751 16.2964C90.1701 16.2964 89.8353 16.1702 89.6706 15.9177C89.5169 15.6652 89.44 15.237 89.44 14.6332C89.44 14.1941 89.5004 13.4311 89.6212 12.3443ZM87.4805 11.1093C87.6781 11.0654 87.98 11.016 88.3862 10.9611L89.7035 10.7635C89.8023 9.23753 89.9176 8.13973 90.0493 7.47007C89.6212 7.97506 88.7649 9.18813 87.4805 11.1093ZM102.601 13.1347C102.437 13.6287 102.107 14.1282 101.613 14.6332C101.13 15.1272 100.516 15.5389 99.769 15.8683C99.0335 16.1866 98.2266 16.3458 97.3483 16.3458C96.009 16.3458 95.0265 16.022 94.4007 15.3743C93.775 14.7156 93.4621 13.8758 93.4621 12.8548C93.4621 11.4057 93.786 10.0938 94.4337 8.91917C95.0814 7.73354 95.9541 6.8059 97.0519 6.13624C98.1497 5.4556 99.3354 5.11528 100.609 5.11528C101.114 5.11528 101.575 5.23055 101.992 5.46109C102.409 5.69163 102.739 6.02646 102.98 6.46558C103.222 6.89372 103.342 7.39871 103.342 7.98055C103.342 8.30989 103.216 8.58983 102.964 8.82037C102.722 9.05091 102.393 9.16618 101.976 9.16618C101.646 9.16618 101.421 9.07835 101.3 8.9027C101.191 8.72705 101.136 8.502 101.136 8.22755L101.152 7.70061C101.152 7.503 101.042 7.31089 100.823 7.12426C100.603 6.93763 100.4 6.84432 100.214 6.84432C99.5988 6.84432 98.9237 7.12426 98.1882 7.68414C97.4526 8.23304 96.8324 8.97955 96.3274 9.92366C95.8224 10.8568 95.5699 11.8723 95.5699 12.9701C95.5699 13.4751 95.7675 13.8867 96.1627 14.2051C96.5579 14.5235 97.0574 14.6826 97.6612 14.6826C97.8588 14.6826 98.1168 14.6168 98.4352 14.485C98.7535 14.3533 99.0445 14.1886 99.3079 13.991C99.5824 13.7934 99.7635 13.6013 99.8513 13.4147C99.9831 13.1402 100.17 12.8328 100.411 12.4925C100.653 12.1522 100.894 11.982 101.136 11.982C101.696 11.982 102.074 12.1028 102.272 12.3443C102.481 12.5858 102.59 12.8493 102.601 13.1347Z" fill="white"/>
</g>
<defs>
<filter id="filter0_d_2_35" x="0.0228271" y="0.600006" width="107.32" height="23.8841" filterUnits="userSpaceOnUse" color-interpolation-filters="sRGB">
<feFlood flood-opacity="0" result="BackgroundImageFix"/>
<feColorMatrix in="SourceAlpha" type="matrix" values="0 0 0 0 0 0 0 0 0 0 0 0 0 0 0 0 0 0 127 0" result="hardAlpha"/>
<feOffset dy="4"/>
<feGaussianBlur stdDeviation="2"/>
<feComposite in2="hardAlpha" operator="out"/>
<feColorMatrix type="matrix" values="0 0 0 0 0 0 0 0 0 0 0 0 0 0 0 0 0 0 0.25 0"/>
<feBlend mode="normal" in2="BackgroundImageFix" result="effect1_dropShadow_2_35"/>
<feBlend mode="normal" in="SourceGraphic" in2="effect1_dropShadow_2_35" result="shape"/>
</filter>
</defs>
</svg>
