<svg width="26" height="26" viewBox="0 0 26 26" fill="none" xmlns="http://www.w3.org/2000/svg">
<path d="M1.625 22.75H8.125V24.375H1.625V22.75ZM13.8125 23.5625C13.6908 23.5624 13.5706 23.535 13.461 23.4823C13.3513 23.4295 13.2548 23.3528 13.1787 23.2578L10.1725 19.5H1.625V17.875H10.5625C10.6842 17.8751 10.8044 17.9025 10.914 17.9552C11.0237 18.008 11.1202 18.0847 11.1962 18.1797L13.7532 21.3744L18.0115 14.9866C18.0836 14.8785 18.1806 14.7892 18.2943 14.7264C18.408 14.6635 18.5351 14.6288 18.665 14.6252C18.7949 14.6216 18.9238 14.6493 19.0408 14.7058C19.1578 14.7623 19.2596 14.846 19.3375 14.95L21.5312 17.875H24.375V19.5H21.125C20.9989 19.5 20.8745 19.4706 20.7616 19.4142C20.6488 19.3578 20.5507 19.2759 20.475 19.175L18.7265 16.8431L14.4885 23.2009C14.4176 23.3073 14.3226 23.3954 14.2112 23.4581C14.0998 23.5208 13.9752 23.5563 13.8474 23.5617L13.8125 23.5625ZM8.9375 13V8.9375H9.75C10.6116 8.93643 11.4376 8.59367 12.0469 7.98441C12.6562 7.37515 12.9989 6.54912 13 5.6875V3.25H10.5625C9.73048 3.25136 8.93104 3.57353 8.33056 4.14944C7.90982 3.3855 7.29194 2.74835 6.54128 2.30435C5.79062 1.86036 4.93464 1.62576 4.0625 1.625H1.625V4.0625C1.62651 5.35497 2.1406 6.59407 3.05452 7.50798C3.96843 8.4219 5.20753 8.93599 6.5 8.9375H7.3125V13H1.625V14.625H13V13H8.9375ZM10.5625 4.875H11.375V5.6875C11.3746 6.11834 11.2032 6.53142 10.8986 6.83607C10.5939 7.14073 10.1808 7.31207 9.75 7.3125H8.9375V6.5C8.93793 6.06916 9.10927 5.65608 9.41393 5.35143C9.71858 5.04677 10.1317 4.87543 10.5625 4.875ZM6.5 7.3125C5.63838 7.31143 4.81235 6.96867 4.20309 6.35941C3.59383 5.75015 3.25108 4.92412 3.25 4.0625V3.25H4.0625C4.92412 3.25108 5.75015 3.59383 6.35941 4.20309C6.96867 4.81235 7.31143 5.63838 7.3125 6.5V7.3125H6.5Z" fill="#D0F5EF"/>
</svg>
